<?xml version="1.0" standalone="no"?>
<!DOCTYPE svg PUBLIC "-//W3C//DTD SVG 20010904//EN"
 "http://www.w3.org/TR/2001/REC-SVG-20010904/DTD/svg10.dtd">
<svg version="1.0" xmlns="http://www.w3.org/2000/svg"
 width="1404.000000pt" height="1404.000000pt" viewBox="0 0 1404.000000 1404.000000"
 preserveAspectRatio="xMidYMid meet">
<metadata>
Created by potrace 1.14, written by Peter Selinger 2001-2017
</metadata>
<g transform="translate(0.000000,1404.000000) scale(0.100000,-0.100000)"
fill="#000000" stroke="none">
<path d="M6979 14008 c-7 -13 -20 -36 -29 -53 -22 -39 -559 -976 -807 -1409
-107 -186 -205 -357 -218 -380 -30 -54 -283 -497 -294 -516 -13 -21 -150 -259
-171 -295 -9 -16 -96 -167 -192 -335 -96 -168 -190 -332 -208 -365 -18 -33
-41 -72 -51 -86 l-18 -25 -1928 -2 c-1060 -1 -1963 -2 -2006 -2 l-77 0 2
-1172 3 -1171 1330 -3 c732 -1 1332 -2 1334 -3 2 0 -1 -7 -7 -13 -5 -7 -19
-29 -30 -48 -10 -19 -49 -86 -86 -149 -36 -62 -66 -115 -66 -117 0 -2 -17 -32
-38 -66 -21 -35 -52 -88 -69 -118 -16 -30 -63 -113 -105 -185 -41 -71 -86
-150 -100 -175 -14 -25 -60 -106 -103 -180 -248 -432 -552 -961 -574 -1001
-14 -25 -57 -100 -95 -167 l-70 -120 -659 0 c-362 0 -660 -2 -663 -4 -7 -8 -4
-2332 3 -2338 5 -4 37 -23 73 -42 36 -20 115 -65 176 -100 61 -36 117 -68 125
-71 8 -4 28 -15 44 -25 17 -10 50 -30 75 -44 25 -14 119 -68 210 -120 361
-207 1198 -687 1254 -717 32 -18 62 -29 66 -24 4 4 146 251 315 548 170 297
317 553 328 568 l19 28 1339 -2 c1199 -2 1339 -4 1334 -18 -3 -8 -79 -141
-167 -296 -89 -154 -172 -298 -184 -320 -12 -22 -37 -67 -56 -100 -33 -56 -93
-161 -137 -237 -10 -18 -89 -157 -176 -308 -87 -151 -166 -288 -175 -305 -9
-16 -31 -54 -49 -83 -17 -29 -31 -54 -31 -56 0 -2 -52 -93 -115 -201 -63 -109
-115 -199 -115 -200 0 -1 -27 -49 -60 -106 -47 -81 -57 -106 -47 -115 10 -9
450 -263 612 -354 22 -12 112 -64 200 -115 190 -110 615 -354 665 -382 19 -11
146 -84 281 -162 135 -77 250 -141 255 -141 8 0 194 315 270 455 6 11 29 52
51 90 143 250 479 835 494 861 9 17 70 123 135 235 65 112 134 233 154 269 57
101 74 131 420 733 179 312 333 581 343 599 10 18 47 83 83 144 l64 111 1817
1 c1000 0 1901 1 2003 1 l186 1 0 1168 c0 642 -3 1169 -7 1172 -4 3 -603 5
-1331 5 l-1324 0 49 85 c27 47 59 103 72 125 24 44 291 509 324 565 11 19 34
60 51 90 17 30 42 75 57 100 55 94 579 1008 603 1053 78 142 182 316 193 319
6 2 305 4 662 4 l651 -1 0 1173 0 1172 -47 0 c-42 0 -80 19 -410 208 -200 115
-384 220 -409 234 -25 14 -127 73 -227 130 -100 58 -188 108 -195 112 -7 3
-29 16 -48 27 -84 51 -677 388 -690 394 -15 5 -34 -22 -99 -137 -39 -70 -57
-102 -196 -343 -76 -132 -143 -249 -149 -260 -6 -11 -56 -98 -110 -193 l-100
-172 -1338 1 c-736 1 -1340 5 -1342 8 -2 3 46 92 106 196 61 105 120 208 132
230 13 22 130 227 261 455 131 228 255 445 276 482 111 194 158 275 177 310
25 45 160 279 171 298 70 115 201 354 197 358 -6 6 -33 21 -86 50 -19 10 -91
51 -160 92 -69 40 -141 82 -160 92 -57 33 -434 249 -450 258 -17 11 -261 149
-330 188 -25 14 -62 36 -82 49 -21 12 -39 23 -42 23 -2 0 -53 29 -114 64 -61
36 -131 76 -154 89 -85 47 -324 185 -376 216 -63 37 -77 38 -93 9z m2061
-5815 c0 -2 -106 -189 -237 -416 -130 -227 -244 -425 -253 -442 -44 -78 -260
-454 -279 -485 -11 -19 -24 -41 -28 -49 -3 -8 -34 -62 -68 -120 -34 -58 -64
-113 -68 -121 -4 -8 -13 -24 -19 -35 -19 -28 -56 -92 -77 -128 -41 -73 -143
-253 -151 -267 -6 -8 -43 -73 -84 -145 l-75 -130 -1345 0 -1344 -1 40 75 c23
42 47 83 55 92 7 8 13 18 13 22 0 3 64 117 143 254 79 136 146 255 150 263 4
8 15 29 26 45 10 17 152 264 316 550 354 617 346 603 365 638 38 70 176 307
205 352 l32 50 1341 0 c738 1 1342 -1 1342 -2z"/>
</g>
</svg>
